<?xml version="1.0" encoding="iso-8859-1"?>
<!-- Generator: Adobe Illustrator 19.0.0, SVG Export Plug-In . SVG Version: 6.00 Build 0)  -->
<svg version="1.1" id="Layer_1" xmlns="http://www.w3.org/2000/svg" xmlns:xlink="http://www.w3.org/1999/xlink" x="0px" y="0px"
	 viewBox="0 0 496 496" style="enable-background:new 0 0 496 496;" xml:space="preserve">
<path style="fill:#00233F;" d="M338.4,129.2c0,40-32,72-72,72h-35.2c-40,0-72-32-72-72l0,0c0-40,32-72,72-72h35.2
	C305.6,57.2,338.4,89.2,338.4,129.2L338.4,129.2z"/>
<rect x="184" y="241.2" style="fill:#F9BDA0;" width="128" height="152"/>
<polygon style="fill:#E28F71;" points="312,393.2 248,393.2 188,241.2 312,241.2 "/>
<path style="fill:#FCCCB9;" d="M336.8,158.8c0,70.4-43.2,134.4-88.8,134.4s-88.8-64-88.8-134.4s43.2-82.4,88.8-82.4
	S336.8,88.4,336.8,158.8z"/>
<path style="fill:#F9BDA0;" d="M248,76.4c45.6,0,88.8,12,88.8,82.4S293.6,293.2,248,293.2"/>
<path style="fill:#00233F;" d="M280,73.2c0,8.8-7.2,16-16,16h-24c-8.8,0-16-7.2-16-16l0,0c0-8.8,7.2-16,16-16h24
	C272.8,57.2,280,64.4,280,73.2L280,73.2z"/>
<path style="fill:#36C9B4;" d="M336,207.6c0,8-39.2,105.6-88,105.6s-88-98.4-88-105.6s39.2-14.4,88-14.4S336,199.6,336,207.6z"/>
<path style="fill:#22B2B2;" d="M248,193.2c48.8,0,88,6.4,88,14.4s-39.2,105.6-88,105.6"/>
<polygon style="fill:#36C9B4;" points="265.6,486 496,483.6 491.2,415.6 315.2,343.6 248,388.4 180.8,343.6 4.8,415.6 0,483.6 
	230.4,486 230.4,486.8 248,486.8 265.6,486.8 "/>
<polyline style="fill:#22B2B2;" points="230.4,486 230.4,486.8 248,486.8 265.6,486.8 265.6,486 496,483.6 491.2,415.6 315.2,343.6 
	248,388.4 180.8,343.6 "/>
<rect x="169.028" y="79.445" transform="matrix(-0.8513 -0.5246 0.5246 -0.8513 374.8551 333.1116)" style="fill:#F9BDA0;" width="131.195" height="67.997"/>
<path style="fill:#36C9B4;" d="M263.2,9.2H232c-40.8,0-74.4,36-74.4,76.8v36.8v4.8C160,111.6,192,98,232,98h31.2
	c40,0,69.6,1.6,72,17.6c0-1.6,0.8,2.4,0.8,1.6V86C336,45.2,304.8,9.2,263.2,9.2z"/>
<g>
	<path style="fill:#22B2B2;" d="M232,97.2h31.2c40,0,72,12,74.4,28c0-1.6,0-1.6,0-3.2V86.8c0-40.8-33.6-77.6-74.4-77.6H232"/>
</g>
<polygon style="fill:#149CA3;" points="248,459.6 349.6,358 315.2,343.6 248,388.4 180.8,343.6 146.4,358 "/>
<g>
	
		<ellipse transform="matrix(-0.4654 -0.8851 0.8851 -0.4654 267.9042 229.9651)" style="fill:#4EDDC5;" cx="203.401" cy="34.076" rx="8" ry="25.6"/>
	<circle style="fill:#4EDDC5;" cx="176" cy="55.6" r="3.2"/>
	<circle style="fill:#4EDDC5;" cx="168.8" cy="67.6" r="3.2"/>
	<path style="fill:#4EDDC5;" d="M239.2,202c0,3.2-33.6,14.4-52,16.8c-18.4,2.4-13.6-6.4-13.6-9.6s14.4-7.2,32-9.6
		C224,198,239.2,198.8,239.2,202z"/>
	<polygon style="fill:#4EDDC5;" points="14.4,421.2 144,370 182.4,404.4 133.6,397.2 	"/>
</g>
<g>
</g>
<g>
</g>
<g>
</g>
<g>
</g>
<g>
</g>
<g>
</g>
<g>
</g>
<g>
</g>
<g>
</g>
<g>
</g>
<g>
</g>
<g>
</g>
<g>
</g>
<g>
</g>
<g>
</g>
</svg>
