<?xml version="1.0" standalone="no"?>
<!DOCTYPE svg PUBLIC "-//W3C//DTD SVG 20010904//EN"
 "http://www.w3.org/TR/2001/REC-SVG-20010904/DTD/svg10.dtd">
<svg version="1.0" xmlns="http://www.w3.org/2000/svg"
 width="512.000000pt" height="512.000000pt" viewBox="0 0 512.000000 512.000000"
 preserveAspectRatio="xMidYMid meet">
<metadata>
Created by potrace 1.11, written by Peter Selinger 2001-2013
</metadata>
<g transform="translate(0.000000,512.000000) scale(0.100000,-0.100000)"
fill="#000000" stroke="none">
<path d="M2438 4865 c-2 -2 -32 -5 -68 -9 -242 -22 -481 -145 -630 -323 -47
-56 -110 -160 -127 -209 -11 -31 -10 -239 1 -324 3 -25 8 -67 11 -95 6 -60 15
-123 20 -150 2 -11 4 -25 4 -32 1 -8 23 -4 69 14 363 137 811 181 1212 117
154 -24 324 -73 424 -120 69 -33 76 -32 77 19 1 23 3 51 4 62 19 164 22 462 6
521 -64 232 -326 445 -621 503 -30 6 -66 14 -80 17 -26 5 -297 13 -302 9z"/>
<path d="M3219 3672 c0 -4 -3 -27 -5 -52 -3 -25 -9 -71 -13 -103 l-8 -58 31
-13 c17 -8 51 -23 76 -34 62 -27 90 -35 90 -25 0 4 5 35 10 68 21 130 21 134
-3 149 -31 21 -177 76 -178 68z"/>
<path d="M1810 3663 c-8 -2 -24 -8 -35 -13 -11 -4 -42 -16 -68 -27 l-48 -18 6
-55 c3 -30 11 -83 16 -116 l11 -62 97 41 98 40 -7 36 c-5 20 -11 68 -14 106
-3 39 -6 71 -6 73 0 4 -34 1 -50 -5z"/>
<path d="M2498 3515 c-2 -1 -28 -6 -57 -9 -73 -9 -280 -68 -356 -101 -16 -7
-65 -27 -107 -44 -87 -34 -268 -118 -268 -123 0 -2 9 -44 20 -93 57 -260 145
-425 280 -526 79 -58 85 -71 83 -174 -2 -123 -53 -199 -171 -253 -43 -19 -288
-92 -312 -92 -3 0 -5 157 -5 349 0 262 -3 360 -13 396 -18 62 -84 127 -145
144 -39 11 -46 18 -65 61 -33 74 -109 128 -191 134 -39 3 -56 10 -80 33 -92
93 -240 94 -336 4 -22 -21 -43 -30 -84 -34 -53 -6 -122 -39 -153 -73 -9 -11
-26 -39 -39 -63 -21 -41 -22 -55 -22 -260 l0 -216 -76 0 c-68 0 -81 -3 -121
-30 -85 -58 -128 -155 -108 -248 5 -21 35 -93 67 -160 61 -127 84 -157 264
-341 101 -105 101 -113 2 -209 -105 -102 -159 -200 -179 -322 -2 -16 -7 -43
-10 -60 -3 -16 -15 -77 -25 -135 -23 -121 -67 -321 -110 -497 -17 -67 -32
-132 -35 -145 -3 -13 -9 -37 -15 -55 -30 -99 43 -174 136 -142 53 18 292 20
318 2 25 -17 60 -17 88 0 26 16 412 18 436 3 9 -6 12 -5 8 0 -9 15 243 10 270
-4 30 -17 59 -15 90 6 19 12 25 13 19 3 -7 -11 -6 -12 5 -5 18 11 390 13 406
2 6 -5 13 -5 16 -1 7 11 368 10 386 -1 8 -6 12 -5 8 0 -7 12 373 12 392 0 9
-6 12 -5 8 0 -7 12 773 12 792 0 9 -6 12 -5 7 2 -9 14 62 8 77 -7 14 -14 53
-14 80 1 26 14 237 18 237 5 0 -6 5 -6 13 0 19 15 453 11 469 -5 15 -15 53
-16 81 0 33 18 293 18 336 0 71 -29 141 14 141 85 0 19 -18 109 -41 201 -42
172 -44 179 -58 247 -5 22 -16 72 -24 110 -23 102 -23 105 -52 265 -48 262
-80 330 -216 460 -48 46 -79 84 -79 95 1 11 48 69 106 130 167 174 184 197
247 333 51 109 59 135 60 187 0 68 -18 111 -67 163 -46 49 -91 67 -168 67 -38
0 -68 2 -69 5 -1 3 -2 100 -3 215 -2 186 -5 215 -23 255 -35 79 -124 140 -205
140 -30 0 -46 7 -71 31 -45 42 -82 60 -139 66 -68 7 -130 -13 -183 -59 -24
-22 -55 -40 -67 -40 -45 -1 -118 -27 -153 -53 -19 -15 -46 -50 -60 -79 -22
-45 -31 -53 -74 -69 -59 -21 -107 -66 -133 -125 -18 -41 -20 -70 -20 -398 0
-281 -3 -354 -13 -354 -18 0 -192 45 -250 65 -138 48 -209 149 -204 292 4 104
13 126 89 203 138 140 243 339 280 529 l8 43 -152 73 c-83 39 -167 77 -186 84
-19 8 -50 20 -68 28 -37 16 -169 56 -247 73 -45 11 -209 22 -217 15z m-1522
-391 c18 -9 37 -26 40 -37 4 -12 8 -163 8 -335 1 -261 4 -314 16 -322 7 -5 21
-5 30 0 13 7 15 42 15 272 -1 144 3 273 8 285 12 28 61 51 93 45 13 -2 33 -16
44 -30 19 -23 20 -41 20 -298 l0 -274 25 0 c17 0 25 6 25 18 1 9 2 94 3 189 2
167 3 172 26 192 32 28 66 26 96 -4 l25 -24 0 -419 c0 -507 3 -492 -108 -595
-11 -10 -22 -28 -24 -40 -2 -12 -3 -219 -3 -460 l1 -437 -291 2 -290 3 0 462
0 463 -72 72 c-210 212 -232 239 -284 348 -67 139 -70 160 -30 201 27 26 37
30 63 25 45 -9 55 -21 98 -111 41 -89 60 -104 96 -80 l24 15 0 366 0 366 29
28 c23 23 35 28 62 25 18 -3 42 -14 54 -25 19 -20 20 -33 22 -293 1 -149 2
-276 2 -280 1 -5 13 -7 29 -5 l27 3 1 318 c1 239 5 324 14 342 10 20 38 37 68
44 2 1 19 -6 38 -15z m3178 2 c19 -8 38 -25 42 -38 4 -12 9 -162 10 -333 1
-170 2 -314 3 -318 0 -5 13 -7 28 -5 l27 3 1 277 c0 252 2 278 18 296 24 26
59 35 93 22 54 -21 53 -17 54 -407 0 -349 1 -364 20 -383 24 -24 43 -25 60 -5
16 19 69 127 70 141 1 33 77 62 113 43 60 -33 61 -73 2 -193 -25 -51 -45 -97
-45 -102 -1 -10 -71 -87 -221 -241 -77 -78 -99 -108 -100 -130 0 -15 -1 -90
-2 -165 -1 -75 -5 -140 -9 -144 -4 -4 -4 -12 0 -18 4 -6 7 -138 8 -294 l0
-282 -288 0 c-223 0 -288 3 -289 13 -1 6 -2 208 -3 447 -1 239 -5 445 -9 457
-4 11 -23 33 -42 48 -20 14 -45 45 -58 68 -22 41 -22 48 -25 478 -2 405 -1
438 15 458 10 11 32 24 50 27 26 5 37 1 58 -20 24 -24 26 -33 25 -94 -1 -37
-1 -120 -1 -184 l1 -118 25 0 25 0 0 275 0 276 25 25 c15 14 32 23 40 20 8 -3
15 -1 15 4 0 18 56 -11 72 -38 13 -23 16 -66 16 -277 0 -137 0 -258 1 -268 1
-14 8 -18 29 -15 l27 3 1 315 c0 173 4 324 7 335 6 19 51 54 70 55 4 0 23 -6
41 -14z m-1367 -698 c5 -85 9 -111 22 -143 53 -131 126 -212 247 -272 l81 -40
-153 -213 c-84 -117 -163 -225 -176 -240 -13 -14 -24 -31 -26 -36 -7 -28 -207
-293 -214 -286 -9 9 -350 485 -420 585 -18 26 -38 53 -43 60 -19 22 -105 146
-105 150 0 2 30 22 66 43 147 86 232 227 235 391 2 48 3 52 23 48 125 -30 345
-27 430 5 11 4 23 6 25 4 2 -2 6 -27 8 -56z"/>
</g>
</svg>
